<svg width="25" height="25" viewBox="0 0 25 25" fill="none" xmlns="http://www.w3.org/2000/svg">
<g id="Emoji Meme / undefined" clip-path="url(#clip0_39_715)">
<path id="Vector" d="M12.7516 22.7561C7.22785 22.7561 2.75 18.2783 2.75 12.7546C2.75 12.4169 2.76674 12.0831 2.79942 11.754H4.75V13.754H5.75V14.754H12.75V13.754H14.75V14.754H21.75V13.754H22.7038C22.2023 18.8085 17.938 22.7561 12.7516 22.7561ZM20.7538 6.75403H4.74931C6.57399 4.32456 9.47925 2.75305 12.7516 2.75305C16.0239 2.75305 18.9291 4.32456 20.7538 6.75403ZM8.16002 16.4129C7.83466 16.6693 7.77872 17.1409 8.03507 17.4662C9.16567 18.9012 10.8889 19.7561 12.7515 19.7561C14.6117 19.7561 16.3329 18.9035 17.4636 17.4718C17.7204 17.1467 17.665 16.6751 17.3399 16.4184C17.0149 16.1616 16.5432 16.217 16.2865 16.5421C15.4372 17.6173 14.1478 18.2561 12.7515 18.2561C11.3534 18.2561 10.0624 17.6156 9.21329 16.5379C8.95694 16.2125 8.48537 16.1566 8.16002 16.4129ZM3.75 7.75403H22.75V10.754H21.75V12.754H20.75V13.754H15.75V12.754H14.75V10.754H12.75V12.754H11.75V13.754H6.75V12.754H5.75V10.754H4.75V9.75403H2.75V8.75403H3.75V7.75403ZM1.75 10.754V9.75403H2.75V10.754H1.75ZM1.75 10.754H0.75V12.754H1.75V10.754ZM7.75 9.75403H6.75V10.754H7.75V11.754H8.75V10.754H7.75V9.75403ZM16.75 9.75403H15.75V10.754H16.75V11.754H17.75V10.754H16.75V9.75403Z" fill="white"/>
</g>
<defs>
<clipPath id="clip0_39_715">
<rect width="24" height="24" fill="white" transform="translate(0.75 0.754028)"/>
</clipPath>
</defs>
</svg>
