<svg width="23" height="23" viewBox="0 0 23 23" fill="none" xmlns="http://www.w3.org/2000/svg">
<path id="Vector" d="M13.3675 6.21103C13.7871 6.35087 14.1684 6.5868 14.4805 6.90003C14.5641 6.98367 14.6423 7.07252 14.7146 7.16603C14.9121 7.42101 15.0646 7.70779 15.1656 8.01403L15.6136 9.39103C15.65 9.49433 15.7167 9.58425 15.8049 9.64902C15.8932 9.7138 15.9991 9.75042 16.1085 9.75409C16.218 9.75776 16.326 9.72832 16.4184 9.66961C16.4377 9.65737 16.4561 9.64398 16.4735 9.62953C16.5402 9.57451 16.5927 9.50438 16.6269 9.42496L16.6281 9.42206L16.6395 9.40103L16.6888 9.24964L16.6876 9.24509L17.0879 8.0144C17.2157 7.63024 17.4242 7.27829 17.6989 6.98189C17.7034 6.9796 17.7077 6.97732 17.7121 6.97506C17.7325 6.95334 17.7533 6.93192 17.7743 6.91081C17.9573 6.7278 18.1639 6.5713 18.3879 6.4451C18.3866 6.44352 18.3855 6.44195 18.3841 6.44037C18.5434 6.35043 18.7113 6.27577 18.886 6.21775L20.2638 5.77031C20.3699 5.73287 20.4619 5.66345 20.5269 5.57159C20.592 5.47974 20.6269 5.36999 20.6269 5.25747C20.6269 5.14495 20.592 5.0352 20.5269 4.94335C20.4619 4.8515 20.3699 4.78207 20.2638 4.74464L20.2362 4.73775L18.8584 4.29031C18.4396 4.15118 18.059 3.91633 17.7467 3.60444C17.4347 3.29256 17.1996 2.91222 17.0604 2.49366L16.6127 1.11692C16.5752 1.01081 16.5057 0.918923 16.4138 0.853928C16.3219 0.788932 16.2121 0.754028 16.0994 0.754028C15.9868 0.754028 15.877 0.788932 15.7851 0.853928C15.6932 0.918923 15.6237 1.01081 15.5862 1.11692L15.1384 2.49366L15.127 2.52775C14.9893 2.92998 14.7627 3.29627 14.464 3.5994C14.3379 3.72733 14.2004 3.84258 14.0535 3.94389C13.8423 4.08881 13.6116 4.2048 13.3675 4.28803L11.9896 4.73603C11.9102 4.76387 11.8383 4.80979 11.7797 4.87016C11.7211 4.93053 11.6773 5.00371 11.6518 5.08391C11.6263 5.16411 11.6197 5.24914 11.6327 5.33229C11.6379 5.3656 11.6462 5.39823 11.6574 5.4298C11.6741 5.47752 11.6974 5.52297 11.727 5.56471C11.792 5.65656 11.884 5.72599 11.9902 5.76342L13.3675 6.21103ZM22.4098 10.9672L21.6444 10.7186C21.4117 10.6413 21.2003 10.5109 21.0268 10.3376C20.8534 10.1643 20.7228 9.95303 20.6455 9.72049L20.3967 8.95564C20.3759 8.89669 20.3373 8.84564 20.2862 8.80953C20.2352 8.77342 20.1742 8.75403 20.1116 8.75403C20.049 8.75403 19.988 8.77342 19.9369 8.80953C19.8859 8.84564 19.8473 8.89669 19.8265 8.95564L19.5777 9.72049C19.5019 9.95139 19.3736 10.1616 19.203 10.3348C19.0324 10.5079 18.824 10.6393 18.5941 10.7186L18.4977 10.7499L18.4939 10.7497L17.8265 10.966C17.7675 10.9869 17.7164 11.0257 17.6805 11.077C17.6441 11.1279 17.6246 11.1889 17.6246 11.2515C17.6246 11.3141 17.6441 11.3751 17.6805 11.426C17.7125 11.4712 17.7562 11.5065 17.8068 11.5283C17.814 11.5315 17.8212 11.5344 17.8287 11.537L18.5915 11.785C18.6485 11.8038 18.7041 11.8257 18.7583 11.8507C18.9268 11.9287 19.0807 12.0361 19.2125 12.1683C19.2913 12.2474 19.3613 12.3345 19.4214 12.4278C19.4928 12.5388 19.55 12.6588 19.5915 12.785L19.8405 13.55C19.8475 13.5698 19.8564 13.5887 19.8671 13.6064C19.8886 13.6425 19.9176 13.674 19.9523 13.6985C20.0033 13.7346 20.0644 13.754 20.1269 13.754C20.1895 13.754 20.2505 13.7346 20.3015 13.6985C20.3526 13.6624 20.3913 13.6113 20.4121 13.5524L20.6608 12.7875C20.7382 12.555 20.8687 12.3437 21.0421 12.1704C21.2155 11.9972 21.427 11.8667 21.6597 11.7894L22.4251 11.5408C22.4841 11.52 22.5352 11.4815 22.5714 11.4304C22.6075 11.3794 22.6269 11.3184 22.6269 11.2559C22.6269 11.1934 22.6075 11.1324 22.5714 11.0814C22.5352 11.0304 22.4841 10.9918 22.4251 10.971L22.4098 10.9672ZM10.6266 22.7551C15.4775 22.7551 19.5217 19.3017 20.435 14.7192C20.2687 14.7598 20.0958 14.7673 19.9261 14.7408C19.7269 14.7097 19.5378 14.6327 19.3735 14.516C19.1471 14.3551 18.9777 14.1264 18.8895 13.863L18.6416 13.101C18.6131 13.0161 18.5655 12.9388 18.5026 12.875C18.441 12.8133 18.3661 12.7664 18.2836 12.738L17.4945 12.481C17.3138 12.4176 17.1493 12.315 17.0128 12.1807C16.8764 12.0463 16.7712 11.8834 16.705 11.7037C16.6388 11.524 16.6131 11.3319 16.6298 11.1411C16.6465 10.9503 16.7052 10.7655 16.8015 10.6C16.6039 10.6958 16.3881 10.7484 16.1685 10.7542C15.9489 10.76 15.7306 10.719 15.5281 10.6338C15.3257 10.5487 15.1436 10.4214 14.9942 10.2603C14.8448 10.0993 14.7313 9.90831 14.6615 9.70003L14.2146 8.32703C14.1496 8.1286 14.0507 7.94287 13.9226 7.77803C13.876 7.71747 13.8257 7.66002 13.7716 7.60603C13.571 7.405 13.3267 7.25304 13.0576 7.16203L11.6575 6.70703C11.4324 6.62763 11.2287 6.49708 11.0625 6.32564C10.8963 6.15419 10.772 5.94653 10.6996 5.71897C10.6272 5.49142 10.6086 5.25017 10.6452 5.0142C10.6819 4.77823 10.7726 4.55396 10.9106 4.35903C11.1003 4.0917 11.3699 3.89143 11.6806 3.78703L13.0416 3.34503C13.1813 3.29683 13.3143 3.2321 13.4377 3.15254C12.5459 2.89188 11.6026 2.75208 10.6266 2.75208C5.10284 2.75208 0.625 7.22992 0.625 12.7536C0.625 18.2773 5.10284 22.7551 10.6266 22.7551ZM6.03501 15.412C6.36037 15.1556 6.83194 15.2116 7.08829 15.5369C7.93742 16.6146 9.22845 17.2552 10.6266 17.2552C12.0228 17.2552 13.3123 16.6164 14.1615 15.5411C14.4183 15.216 14.8898 15.1606 15.2149 15.4174C15.5399 15.6741 15.5954 16.1457 15.3387 16.4708C14.2079 17.9025 12.4867 18.7552 10.6266 18.7552C8.76385 18.7552 7.04066 17.9002 5.91006 16.4652C5.65371 16.1399 5.70966 15.6683 6.03501 15.412ZM6.37771 10.7536C6.37771 10.0636 6.93703 9.50427 7.627 9.50427C8.31696 9.50427 8.87625 10.0636 8.87625 10.7536C8.87625 11.4435 8.31696 12.0028 7.627 12.0028C6.93703 12.0028 6.37771 11.4435 6.37771 10.7536ZM12.3778 10.7536C12.3778 10.0636 12.937 9.50427 13.627 9.50427C14.3169 9.50427 14.8763 10.0636 14.8763 10.7536C14.8763 11.4435 14.3169 12.0028 13.627 12.0028C12.937 12.0028 12.3778 11.4435 12.3778 10.7536Z" fill="white"/>
</svg>
