<svg width="25" height="25" viewBox="0 0 25 25" fill="none" xmlns="http://www.w3.org/2000/svg">
<g id="Gift Open / undefined">
<path id="Vector" d="M17.625 3.75403C17.625 4.30631 17.1773 4.75403 16.625 4.75403C16.0727 4.75403 15.625 4.30631 15.625 3.75403C15.625 3.20175 16.0727 2.75403 16.625 2.75403C17.1773 2.75403 17.625 3.20175 17.625 3.75403ZM8.625 10.254C8.625 8.59718 9.96815 7.25403 11.625 7.25403C13.6961 7.25403 15.375 8.93296 15.375 11.004C15.375 13.4893 13.3603 15.504 10.875 15.504C10.4608 15.504 10.125 15.8398 10.125 16.254C10.125 16.6682 10.4608 17.004 10.875 17.004C14.1887 17.004 16.875 14.3177 16.875 11.004C16.875 8.10453 14.5245 5.75403 11.625 5.75403C9.13972 5.75403 7.125 7.76875 7.125 10.254C7.125 12.3251 8.80393 14.004 10.875 14.004C12.5319 14.004 13.875 12.6609 13.875 11.004C13.875 9.76139 12.8676 8.75403 11.625 8.75403C10.7966 8.75403 10.125 9.4256 10.125 10.254C10.125 10.6682 10.4608 11.004 10.875 11.004C11.2892 11.004 11.625 10.6682 11.625 10.254C12.0392 10.254 12.375 10.5898 12.375 11.004C12.375 11.8324 11.7034 12.504 10.875 12.504C9.63236 12.504 8.625 11.4966 8.625 10.254ZM9.79131 14.8798C9.38547 15.2003 9.125 15.6967 9.125 16.254C9.125 17.2205 9.9085 18.004 10.875 18.004C14.1367 18.004 16.8774 15.7731 17.6545 12.754H19.1181C19.7598 12.754 20.387 12.9439 20.9209 13.2998L23.2911 14.88C23.6358 15.1097 23.7289 15.5754 23.4991 15.92C23.2694 16.2647 22.8037 16.3578 22.4591 16.128L20.625 14.9053V19.504C20.625 21.2989 19.1699 22.754 17.375 22.754H7.875C6.08007 22.754 4.625 21.2989 4.625 19.504V14.9054L2.7911 16.128C2.44646 16.3578 1.98081 16.2647 1.75104 15.92C1.52128 15.5754 1.61441 15.1097 1.95905 14.88L4.32924 13.2998C4.86311 12.9439 5.49039 12.754 6.13202 12.754H6.83536C7.48991 13.8094 8.54655 14.5894 9.79131 14.8798ZM20.875 5.75403C20.875 5.33982 20.5392 5.00403 20.125 5.00403C19.7108 5.00403 19.375 5.33982 19.375 5.75403V6.50403H18.625C18.2108 6.50403 17.875 6.83982 17.875 7.25403C17.875 7.66824 18.2108 8.00403 18.625 8.00403H19.375V8.75403C19.375 9.16824 19.7108 9.50403 20.125 9.50403C20.5392 9.50403 20.875 9.16824 20.875 8.75403V8.00403H21.625C22.0392 8.00403 22.375 7.66824 22.375 7.25403C22.375 6.83982 22.0392 6.50403 21.625 6.50403H20.875V5.75403Z" fill="white"/>
</g>
</svg>
