<svg width="25" height="25" viewBox="0 0 25 25" fill="none" xmlns="http://www.w3.org/2000/svg">
<g id="Glance Horizontal Sparkles / undefined" clip-path="url(#clip0_39_704)">
<path id="Vector" d="M16.4633 7.16631C16.391 7.07289 16.3127 6.98383 16.2289 6.89972C15.9167 6.58658 15.5356 6.35069 15.116 6.21086L13.7382 5.76342C13.632 5.72599 13.54 5.65656 13.475 5.56471C13.4099 5.47286 13.375 5.36311 13.375 5.25059C13.375 5.13807 13.4099 5.02832 13.475 4.93647C13.54 4.84461 13.632 4.77519 13.7382 4.73775L15.116 4.29031C15.5297 4.14755 15.9049 3.91108 16.212 3.5994C16.5107 3.29627 16.7373 2.92998 16.875 2.52775L16.8864 2.49366L17.3342 1.11692C17.3717 1.01081 17.4412 0.918923 17.5331 0.853928C17.625 0.788932 17.7348 0.754028 17.8474 0.754028C17.9601 0.754028 18.0699 0.788932 18.1618 0.853928C18.2537 0.918923 18.3232 1.01081 18.3607 1.11692L18.8085 2.49366C18.9477 2.91222 19.1827 3.29256 19.4948 3.60444C19.807 3.91633 20.1876 4.15118 20.6065 4.29031L21.9843 4.73775L22.0118 4.74464C22.118 4.78207 22.21 4.8515 22.275 4.94335C22.3401 5.0352 22.375 5.14495 22.375 5.25747C22.375 5.36999 22.3401 5.47974 22.275 5.57159C22.21 5.66345 22.118 5.73287 22.0118 5.77031L20.634 6.21775C20.2152 6.35688 19.8345 6.59173 19.5224 6.90362C19.2103 7.2155 18.9753 7.59584 18.836 8.0144L18.3882 9.39114C18.3842 9.40258 18.3798 9.41386 18.375 9.42496C18.3355 9.51676 18.2714 9.59615 18.1894 9.65413C18.0974 9.71913 17.9876 9.75403 17.875 9.75403C17.7624 9.75403 17.6526 9.71913 17.5606 9.65413C17.4687 9.58913 17.3992 9.49725 17.3618 9.39114L16.914 8.0144C16.8128 7.70734 16.6601 7.42067 16.4633 7.16631ZM24.1579 10.9672L23.3925 10.7186C23.1598 10.6413 22.9483 10.5109 22.7749 10.3376C22.6015 10.1643 22.4709 9.95303 22.3936 9.72049L22.1448 8.95564C22.124 8.89669 22.0854 8.84564 22.0343 8.80953C21.9833 8.77342 21.9223 8.75403 21.8597 8.75403C21.7971 8.75403 21.7361 8.77342 21.685 8.80953C21.634 8.84564 21.5954 8.89669 21.5746 8.95564L21.3258 9.72049C21.25 9.95139 21.1217 10.1616 20.9511 10.3348C20.7805 10.5079 20.5721 10.6393 20.3422 10.7186L19.5768 10.9672C19.5178 10.988 19.4667 11.0265 19.4305 11.0776C19.3944 11.1286 19.375 11.1896 19.375 11.2521C19.375 11.3146 19.3944 11.3756 19.4305 11.4266C19.4667 11.4776 19.5178 11.5162 19.5768 11.537L20.3422 11.7856C20.5753 11.8633 20.787 11.9943 20.9605 12.1683C21.1339 12.3422 21.2643 12.5543 21.3411 12.7875L21.5899 13.5524C21.6107 13.6113 21.6493 13.6624 21.7004 13.6985C21.7514 13.7346 21.8124 13.754 21.875 13.754C21.9376 13.754 21.9986 13.7346 22.0496 13.6985C22.1007 13.6624 22.1393 13.6113 22.1601 13.5524L22.4089 12.7875C22.4863 12.555 22.6168 12.3437 22.7902 12.1704C22.9636 11.9972 23.1751 11.8667 23.4078 11.7894L24.1732 11.5408C24.2322 11.52 24.2833 11.4815 24.3195 11.4304C24.3556 11.3794 24.375 11.3184 24.375 11.2559C24.375 11.1934 24.3556 11.1324 24.3195 11.0814C24.2833 11.0304 24.2322 10.9918 24.1732 10.971L24.1579 10.9672ZM10.626 3.75678C11.5925 3.75678 12.376 4.54028 12.376 5.50678V10.0068C12.376 10.9732 11.5925 11.7567 10.626 11.7567H5.12598C4.15948 11.7567 3.37598 10.9732 3.37598 10.0068V5.50678C3.37598 4.54028 4.15948 3.75678 5.12598 3.75678H10.626ZM7.61356 13.7385C8.58006 13.7385 9.36356 14.5221 9.36356 15.4885V20.003C9.36356 20.9695 8.58006 21.753 7.61356 21.753H5.12598C4.15948 21.753 3.37598 20.9695 3.37598 20.003V15.4885C3.37598 14.5221 4.15948 13.7385 5.12598 13.7385H7.61356ZM19.6277 13.753C20.5942 13.753 21.3777 14.5365 21.3777 15.503V20.003C21.3777 20.9695 20.5942 21.753 19.6277 21.753H13.1277C12.1612 21.753 11.3777 20.9695 11.3777 20.003V15.503L11.3835 15.3594C11.4565 14.4601 12.2095 13.753 13.1277 13.753H19.6277Z" fill="white"/>
</g>
<defs>
<clipPath id="clip0_39_704">
<rect width="24" height="24" fill="white" transform="translate(0.375 0.754028)"/>
</clipPath>
</defs>
</svg>
